<svg width="24" height="24" viewBox="0 0 24 24" fill="none" xmlns="http://www.w3.org/2000/svg">
<g clip-path="url(#clip0_680_41)">
<path d="M7.81973 7.69241V0.333984L0.454102 7.69241H7.81973Z" fill="#ED8C0E"/>
<path d="M8.24121 0V7.3281L15.7622 3.09698e-07L8.24121 0Z" fill="#ED8C0E"/>
<path d="M16.0944 7.69241V0.333984L8.63965 7.69241H16.0944Z" fill="#ED8C0E"/>
<path d="M8.24121 8.32812V15.6563L15.6069 8.32812H8.24121Z" fill="#ED8C0E"/>
<path d="M16.0619 23.5588V8.66016L8.69629 16.1095L16.0619 23.5588Z" fill="#ED8C0E"/>
<path d="M8.24121 23.9825H15.6069L8.24121 16.5332V23.9825Z" fill="#ED8C0E"/>
<path d="M16.4834 7.6908H23.6231L16.4834 0.388672V7.6908Z" fill="#ED8C0E"/>
<path d="M23.9462 4.01871e-06L16.8359 0L23.9462 7.36701V4.01871e-06Z" fill="#ED8C0E"/>
<path d="M4.42339e-06 0L0 7.32816L7.49537 3.06012e-07L4.42339e-06 0Z" fill="#728591"/>
<path d="M7.81973 8.32812H0.454102L7.81973 15.7774V8.32812Z" fill="#728591"/>
<path d="M7.35238e-07 8.75195L0 23.6505L7.36559 16.2012L7.35238e-07 8.75195Z" fill="#728591"/>
<path d="M7.81973 23.9825V16.6543L0.454102 23.9825H7.81973Z" fill="#728591"/>
</g>
<defs>
<clipPath id="clip0_680_41">
<rect width="24" height="24" fill="white"/>
</clipPath>
</defs>
</svg>
